<svg width="24" height="23" viewBox="0 0 24 23" fill="none" xmlns="http://www.w3.org/2000/svg">
<path d="M12.2756 22.9854C18.5684 22.9854 23.7803 17.7844 23.7803 11.4928C23.7803 5.20116 18.5589 0 12.266 0C5.97766 0 0.780396 5.20116 0.780396 11.4928C0.780396 17.7844 5.98721 22.9854 12.2756 22.9854Z" fill="#007AFF"/>
<path d="M12.2751 21.5177C9.52333 21.5177 6.87582 20.3496 5.14172 18.5036C6.37824 16.534 9.14125 15.3387 12.2751 15.3387C15.3852 15.3387 18.1623 16.5244 19.4084 18.5036C17.6743 20.3496 15.0267 21.5177 12.2751 21.5177ZM12.2751 13.3995C10.0842 13.3804 8.37875 11.5481 8.37875 9.10603C8.36422 6.80942 10.0992 4.89984 12.2751 4.89984C14.4508 4.89984 16.1714 6.80942 16.1714 9.10603C16.1714 11.5481 14.4658 13.4186 12.2751 13.3995Z" fill="white"/>
</svg>
