<svg width="24" height="24" viewBox="0 0 24 24" fill="none" xmlns="http://www.w3.org/2000/svg">
<g clip-path="url(#clip0_117_21331)">
<path d="M11.9951 23.9848C18.5617 23.9848 24.0001 18.5576 24.0001 11.9925C24.0001 5.42731 18.5517 0 11.9851 0C5.42332 0 6.10352e-05 5.42731 6.10352e-05 11.9925C6.10352e-05 18.5576 5.43328 23.9848 11.9951 23.9848Z" fill="#FFCC00"/>
<path d="M5.81771 11.3817C6.74611 11.3817 7.4988 10.6267 7.4988 9.69477C7.4988 8.77042 6.74611 8.01013 5.81771 8.01013C4.88562 8.01013 4.13037 8.76655 4.13037 9.69477C4.13037 10.6267 4.88948 11.3817 5.81771 11.3817ZM5.81771 10.2968C5.4868 10.2968 5.21162 10.0256 5.21162 9.69477C5.21162 9.35985 5.4868 9.09502 5.81771 9.09502C6.14492 9.09502 6.41756 9.3676 6.41756 9.69477C6.41756 10.0256 6.15267 10.2968 5.81771 10.2968ZM12.002 8.90383C12.9316 8.90383 13.6831 8.14875 13.6831 7.21685C13.6831 6.29253 12.9316 5.53613 12.002 5.53613C11.0712 5.53613 10.3146 6.28867 10.3146 7.21685C10.3146 8.14875 11.0751 8.90383 12.002 8.90383ZM12.002 7.81895C11.6723 7.81895 11.3997 7.54769 11.3997 7.21685C11.3997 6.88196 11.6723 6.61714 12.002 6.61714C12.3305 6.61714 12.6018 6.88971 12.6018 7.21685C12.6018 7.54769 12.3382 7.81895 12.002 7.81895ZM18.1848 11.3817C19.1132 11.3817 19.8698 10.6267 19.8698 9.69477C19.8698 8.76655 19.117 8.01013 18.1848 8.01013C17.2566 8.01013 16.5014 8.77042 16.5014 9.69477C16.5014 10.6267 17.2566 11.3817 18.1848 11.3817ZM18.1848 10.2968C17.85 10.2968 17.5865 10.0256 17.5865 9.69477C17.5865 9.3676 17.8577 9.09502 18.1848 9.09502C18.5159 9.09502 18.7885 9.35985 18.7885 9.69477C18.7885 10.0256 18.5159 10.2968 18.1848 10.2968ZM6.42558 10.9802L8.39628 12.1595C8.93416 12.4819 9.62632 12.4231 10.0493 11.8474L12.3815 8.72493L11.2592 8.24389L9.1908 11.0125C9.09785 11.1414 8.98826 11.1658 8.82845 11.0654L7.05531 9.97085L6.42558 10.9802ZM17.5936 10.9973L16.9638 9.98651L15.2079 11.0706C15.0309 11.1829 14.9146 11.1531 14.8124 11.0135L12.7665 8.25708L11.6441 8.74201L13.9831 11.8779C14.3928 12.4389 15.0783 12.4978 15.5843 12.2004L17.5936 10.9973ZM7.22873 15.4114H16.7803V14.2239H7.22873V15.4114ZM5.71032 11.1326L6.95053 16.1882C7.19938 17.1994 7.75895 17.7016 8.79673 17.7016H15.2124C16.245 17.7016 16.8058 17.1994 17.0547 16.1882L18.2948 11.1326L17.1898 10.633L15.8774 16.0059C15.7974 16.3404 15.5787 16.5102 15.2199 16.5102H8.78915C8.42904 16.5102 8.2117 16.3404 8.12777 16.0059L6.81542 10.633L5.71032 11.1326Z" fill="white"/>
</g>
<defs>
<clipPath id="clip0_117_21331">
<rect width="24" height="24" fill="white"/>
</clipPath>
</defs>
</svg>
